# xmcd
#
# Track frame offsets:
#	182
#	11580
#	25370
#	40902
#	52515
#	65605
#	76495
#	88745
#	101795
#	115900
#	130977
#	143032
#	154197
#	167877
#	181830
#	195772
#	211017
#	231412
#	244815
#	259452
#
# Disc length: 3853
#
# Revision: 5
# Processed by: cddbd v1.5.1PL0 Copyright (c) Steve Scherf et al.
# Submitted via: CDex 1.50
# Normalized: r4:DSETVAR1
#
DISCID=0f0f0b14
DTITLE=Various Artist - Tresors Blues CD1
DYEAR=1990
DGENRE=Blues
TTITLE0=John Lee Hooker - Boom boom
TTITLE1=Lightnin' Hopkins - Mojo Hand
TTITLE2=Big Bill Broonzy - Big Bill Blues
TTITLE3=Jack Dupree - Early In The Morning
TTITLE4=Arthur "Big Boy" Crudup - That's All Right
TTITLE5=Sonny Boy Williamson - Apple Tree Swing
TTITLE6=Big Maceo - Broke And Hungry Blues
TTITLE7=Billie Holiday - I Gotta Righ to Sing The Blues
TTITLE8=Tom McClennan - I Love My Baby
TTITLE9=Bessie Smith - Backwater blues
TTITLE10=Billie Holiday - Billie's blues
TTITLE11=Memphis Minnie - I'm waiting on you
TTITLE12=Robert Johnson - Sweet home Chicago
TTITLE13=Tampa Red - Seminole blues
TTITLE14=Kasas City Kitty - Christmas Mornin' blues
TTITLE15=Bill "Jazz" Gillum - Worried and bothered
TTITLE16=Jack Dupree - In The Evening
TTITLE17=Memphis Slim - The driving wheel
TTITLE18=Big Bill Broonzy - Lonesome road blues
TTITLE19=Jack Dupree - Death Of Louis Armstrong
EXTD=YEAR: 1990
EXTT0=
EXTT1=
EXTT2=
EXTT3=
EXTT4=
EXTT5=
EXTT6=
EXTT7=
EXTT8=
EXTT9=
EXTT10=
EXTT11=
EXTT12=
EXTT13=
EXTT14=
EXTT15=
EXTT16=
EXTT17=
EXTT18=
EXTT19=
PLAYORDER=
